PathFileType	4	(X/Y/Z)	C:/Users/opensim2020/Desktop/walking_exp_matlab/subject02_walking08_straight_02.trc	
DataRate	CameraRate	NumFrames	NumMarkers	Units	OrigDataRate	OrigDataStartFrame	OrigNumFrames	
100.00	100.00	4	41	mm	100.00	1501	259	
Frame#	Time	LFHD			RFHD			LBHD			RBHD			C7			T10			CLAV			STRN			RBAK			LSHO			LUPA			LELB			LFRM			LWRA			LWRB			LFIN			RSHO			RUPA			RELB			RFRM			RWRA			RWRB			RFIN			LASI			RASI			LPSI			RPSI			LTHI			LKNE			LTIB			LANK			LHEE			LTOE			RTHI			RKNE			RTIB			RANK			RHEE			RTOE			*39			*40			
		X1	Y1	Z1	X2	Y2	Z2	X3	Y3	Z3	X4	Y4	Z4	X5	Y5	Z5	X6	Y6	Z6	X7	Y7	Z7	X8	Y8	Z8	X9	Y9	Z9	X10	Y10	Z10	X11	Y11	Z11	X12	Y12	Z12	X13	Y13	Z13	X14	Y14	Z14	X15	Y15	Z15	X16	Y16	Z16	X17	Y17	Z17	X18	Y18	Z18	X19	Y19	Z19	X20	Y20	Z20	X21	Y21	Z21	X22	Y22	Z22	X23	Y23	Z23	X24	Y24	Z24	X25	Y25	Z25	X26	Y26	Z26	X27	Y27	Z27	X28	Y28	Z28	X29	Y29	Z29	X30	Y30	Z30	X31	Y31	Z31	X32	Y32	Z32	X33	Y33	Z33	X34	Y34	Z34	X35	Y35	Z35	X36	Y36	Z36	X37	Y37	Z37	X38	Y38	Z38	X39	Y39	Z39	X40	Y40	Z40	X41	Y41	Z41	

33	0.320	1517.89600	756.92377	1758.91565	1375.52295	755.93781	1740.63892	1529.04651	864.34692	1653.44678	1387.60046	874.49829	1631.39490	1454.56677	897.10181	1526.51782	1449.28821	948.04352	1251.23474	1465.67346	757.08929	1460.47693	1453.35254	703.24127	1287.92810	1386.65845	949.71729	1353.91272	1636.44263	822.48621	1495.03662	1722.60339	817.15228	1292.50073	1739.04309	799.33624	1153.43762	1747.94067	761.48138	1026.00513	1708.34180	684.42560	916.79163	1745.64954	726.33356	908.43878	1747.93188	691.03314	852.36340	1269.32141	811.64124	1498.88379	1184.43982	835.78558	1305.76807	1170.27344	821.64301	1158.67480	1156.80701	783.61859	1043.93604	1180.76746	723.63800	923.71570	1147.66248	769.18115	914.45587	1149.37573	725.89410	855.04132	1584.91858	700.65436	997.08722	1327.59595	711.85333	971.28955	1512.29688	916.31024	1038.43005	1398.61938	924.50568	1029.48706	1643.46899	756.03949	688.52863	1611.29346	783.12421	484.49954	1605.91357	832.41016	294.60175	1564.63660	817.76630	73.41027	1510.70410	848.79083	45.87095	1587.26685	661.82794	36.32846	1245.51599	776.40228	671.73047	1249.28687	760.86554	474.45410	1248.10864	904.47906	361.95074	1281.67297	1038.61951	224.97934	1345.89368	1088.39832	200.24069	1244.57324	978.36194	78.19263	1429.71045	873.42889	1796.19275	-3357.50122	2845.87378	1034.22876 
34	0.330	1519.76697	748.82117	1759.42322	1377.44141	748.39789	1741.04700	1531.42334	856.24207	1654.00281	1390.02405	866.90497	1631.98291	1457.39771	889.24213	1527.41956	1452.45667	941.14526	1252.31665	1467.80615	749.44781	1460.82617	1455.34705	696.41321	1287.95154	1389.79285	942.78796	1355.00403	1638.73022	813.16241	1496.11023	1725.57361	806.47369	1293.89197	1742.38098	787.28876	1154.77197	1750.89880	747.44769	1027.98120	1710.29126	668.88422	920.22809	1747.93384	710.42712	910.91876	1749.76587	673.89508	855.51489	1271.90771	804.55499	1499.26135	1187.29480	829.78412	1306.32971	1172.58777	816.38074	1159.11658	1158.93567	778.04688	1044.43982	1182.80396	718.13989	924.11707	1150.07727	764.10791	914.91077	1151.50439	720.55231	855.69592	1586.31372	694.10608	997.23755	1329.21741	705.52850	972.64862	1514.49805	910.15680	1038.80383	1400.65332	918.23151	1030.48218	1644.37781	752.21509	688.16766	1612.11340	780.99292	484.65659	1606.31311	830.92041	294.75256	1564.56848	817.67352	73.46264	1510.64661	848.75433	45.88672	1587.34900	661.89038	36.34971	1246.87830	765.87268	673.33124	1251.37097	747.37677	476.35950	1252.05078	889.43280	361.72040	1286.36914	1020.46106	222.03470	1350.86475	1068.87244	194.52715	1245.00220	956.47870	78.77317	1432.17334	865.72137	1796.75574	-3360.17773	2845.20557	1033.98267 
35	0.340	1521.50916	740.60144	1759.92773	1379.20374	740.77832	1741.15454	1533.82739	848.13361	1654.64246	1392.36621	859.27557	1632.33801	1460.13269	881.45850	1528.28149	1455.37512	934.26086	1253.25842	1469.79150	741.87195	1461.15210	1457.50940	689.81818	1288.08496	1392.81543	935.94238	1355.96411	1640.69165	803.71466	1496.96057	1728.42920	795.72046	1295.34412	1745.89807	775.41089	1156.46863	1753.71985	733.48047	1029.99219	1712.15759	653.69592	923.52844	1750.26331	694.71893	913.48889	1751.55505	657.08173	858.71027	1274.56824	797.67163	1499.79663	1189.92017	824.12152	1306.89795	1174.82800	811.28473	1159.57727	1160.65002	772.29065	1044.69177	1184.61938	712.68488	924.70813	1151.97192	758.68951	915.31616	1153.25439	715.13873	856.29590	1588.42993	688.90387	997.60388	1331.38049	700.34314	973.82391	1516.34045	904.00757	1038.96204	1402.22839	911.94135	1031.38806	1645.12305	748.53290	687.82959	1612.68933	778.26263	484.48941	1606.79822	829.10101	294.87988	1564.33777	817.50299	73.32165	1510.77759	848.97400	46.19613	1587.31470	661.79541	36.23792	1248.15234	755.54706	674.87885	1253.38550	733.91260	478.14175	1255.86328	874.22131	360.96692	1290.87903	1001.71753	218.27950	1355.58875	1048.89807	188.24696	1245.83447	933.76672	78.55727	1434.25110	857.73224	1797.15771	-3360.27783	2845.20532	1034.18494 
36	0.350	1523.07605	732.30920	1760.31360	1380.76331	733.20673	1741.41956	1535.99438	839.94641	1655.26184	1394.62292	851.77124	1632.82239	1462.78809	873.73083	1529.03308	1458.19751	927.38855	1254.10864	1471.74402	734.38458	1461.40784	1459.45203	682.97656	1288.14380	1395.58667	928.91730	1356.89734	1642.70471	794.52087	1497.97083	1731.15820	784.88849	1296.76282	1748.91833	763.33728	1157.92371	1756.54297	719.63367	1032.16284	1714.25989	638.73621	927.25537	1752.36133	679.06854	915.97198	1752.96680	640.61401	861.78229	1276.86475	790.61969	1500.04358	1191.97083	817.78296	1307.08691	1176.99927	806.21497	1160.02832	1163.05029	767.64203	1045.19653	1186.23547	707.37744	925.34766	1154.25745	753.53064	915.82532	1154.96118	709.66742	856.92078	1590.39758	683.09967	998.17432	1333.65918	694.16064	975.41211	1517.96240	897.91040	1039.01794	1403.56628	905.61011	1032.20862	1645.68286	744.73743	687.31970	1612.93164	775.29535	484.18948	1607.21582	827.25415	295.02164	1564.31213	817.30133	73.38398	1510.73401	848.97339	46.31790	1587.35217	661.76971	36.22250	1249.39893	745.44611	676.33453	1255.51770	720.89844	479.91846	1259.43542	858.84399	359.66116	1294.97095	982.27356	213.62776	1360.03113	1028.27075	181.32074	1247.00903	910.30933	77.57430	1436.24182	849.72339	1797.64038	-3360.43994	2845.39038	1034.00989 
